<svg xmlns="http://www.w3.org/2000/svg" version="1.1" width="140px" height="140px" style="shape-rendering:geometricPrecision; text-rendering:geometricPrecision; image-rendering:optimizeQuality; fill-rule:evenodd; clip-rule:evenodd" xmlns:xlink="http://www.w3.org/1999/xlink">
<g><path style="opacity:0.982" fill="#20df64" d="M 57.5,3.5 C 90.1461,0.201633 114.313,12.8683 130,41.5C 142.059,73.2211 135.559,100.388 110.5,123C 93.0674,135.687 73.7341,139.687 52.5,135C 25.6122,126.779 9.11219,108.945 3,81.5C -0.98233,48.6271 11.5177,24.4604 40.5,9C 46.1057,6.50609 51.7724,4.67276 57.5,3.5 Z"/></g>
<g><path style="opacity:1" fill="#000101" d="M 52.5,39.5 C 68.3079,49.2397 83.9745,59.2397 99.5,69.5C 84.4417,79.886 69.1083,89.886 53.5,99.5C 52.5029,79.6736 52.1695,59.6736 52.5,39.5 Z"/></g>
<g><path style="opacity:1" fill="#82d29f" d="M 52.5,39.5 C 52.1695,59.6736 52.5029,79.6736 53.5,99.5C 53.44,100.043 53.1067,100.376 52.5,100.5C 51.172,80.0039 51.172,59.6706 52.5,39.5 Z"/></g>
</svg>
